<?xml version="1.0" standalone="no"?>
<!DOCTYPE svg PUBLIC "-//W3C//DTD SVG 20010904//EN"
 "http://www.w3.org/TR/2001/REC-SVG-20010904/DTD/svg10.dtd">
<svg version="1.0" xmlns="http://www.w3.org/2000/svg"
 width="920.000000pt" height="925.000000pt" viewBox="0 0 920.000000 925.000000"
 preserveAspectRatio="xMidYMid meet">

<g transform="translate(0.000000,925.000000) scale(0.100000,-0.100000)"
fill="#000000" stroke="none">
<path d="M2065 9239 c-11 -6 -473 -464 -1028 -1018 -685 -684 -1010 -1016
-1017 -1037 -7 -20 -7 -40 -1 -55 5 -13 689 -703 1520 -1534 831 -830 1511
-1515 1511 -1521 0 -6 -12 -21 -26 -35 -29 -27 -284 -303 -409 -444 -671 -754
-1384 -1687 -2010 -2630 -282 -425 -603 -941 -592 -952 5 -4 253 126 387 204
436 253 949 599 1420 956 668 507 1276 1032 1941 1677 l266 258 1549 -1549
c852 -852 1557 -1552 1567 -1555 46 -15 84 18 445 379 364 365 369 371 363
432 -1 12 -626 645 -1546 1565 -850 850 -1545 1550 -1545 1555 0 6 377 387
838 848 l838 838 38 -114 c40 -122 119 -275 191 -372 184 -246 479 -438 775
-506 111 -26 374 -36 491 -20 411 58 775 305 982 667 214 372 234 846 52 1231
-306 650 -1046 947 -1714 689 -110 -43 -256 -126 -343 -197 -35 -29 -638 -626
-1340 -1328 l-1278 -1276 -27 27 -27 27 1287 1288 c707 708 1306 1314 1330
1345 208 269 309 637 267 978 -72 586 -518 1061 -1092 1164 -252 45 -501 21
-745 -73 -111 -43 -287 -151 -376 -231 -234 -210 -372 -442 -439 -741 -31
-138 -33 -407 -4 -539 62 -287 187 -513 394 -712 144 -139 317 -241 515 -305
l87 -28 -843 -843 -842 -842 -175 175 -175 175 617 618 c339 339 621 627 627
639 16 31 14 85 -5 111 -23 33 -72 55 -108 48 -24 -5 -167 -142 -658 -634
l-628 -627 -65 65 -65 65 624 625 c422 422 627 634 631 653 17 66 -36 137
-102 137 -21 0 -50 -7 -63 -16 -14 -9 -301 -292 -637 -628 l-613 -611 -62 63
-63 62 617 618 c339 339 621 627 627 639 41 81 -29 174 -118 158 -31 -6 -118
-89 -661 -631 l-625 -624 -63 63 -62 63 625 630 c669 673 655 657 621 722 -23
44 -54 62 -106 62 l-45 0 -627 -627 -628 -628 -65 65 -65 65 630 630 630 630
0 42 c0 74 -72 129 -142 108 -12 -4 -304 -288 -648 -631 l-625 -624 -65 65
-65 65 628 628 c688 688 662 658 617 730 -24 39 -79 65 -118 56 -18 -4 -226
-205 -654 -632 l-628 -627 -60 60 c-33 33 -60 64 -60 70 0 5 281 291 625 635
l625 625 0 44 c0 36 -6 49 -34 77 -28 28 -41 34 -77 34 l-44 0 -630 -630 -630
-630 -65 65 -65 65 627 628 c440 441 628 635 632 655 16 67 -64 147 -131 131
-20 -4 -214 -192 -655 -632 l-628 -627 -65 65 -65 65 627 627 628 628 0 51 c0
45 -4 54 -33 80 -25 22 -42 29 -74 29 l-43 0 -630 -630 -630 -630 -65 65 -65
65 628 628 627 627 0 45 c0 54 -20 87 -66 106 -40 17 -52 17 -79 3z m4678
-561 c145 -155 245 -361 283 -582 24 -143 15 -354 -20 -491 -95 -366 -375
-671 -736 -800 -220 -78 -478 -85 -708 -19 -169 49 -348 151 -470 269 -48 47
-54 57 -47 82 20 81 74 84 159 9 220 -193 473 -276 772 -254 496 36 893 449
921 959 15 266 -70 507 -256 727 -33 40 -61 81 -61 91 0 33 39 71 73 71 26 0
42 -11 90 -62z m-687 -68 c240 -60 442 -244 519 -470 40 -121 47 -299 15 -420
-34 -134 -90 -231 -190 -330 -95 -94 -163 -139 -270 -176 -152 -53 -321 -55
-480 -5 -196 62 -383 246 -451 445 -99 288 -27 576 195 784 176 164 431 230
662 172z m-4269 -2847 l1472 -1478 -50 -50 -49 -50 -1475 1475 c-937 938
-1476 1484 -1480 1500 -10 40 27 80 73 80 36 0 82 -45 1509 -1477z m6888 986
c90 -79 219 -289 270 -440 64 -186 72 -466 21 -664 -50 -193 -154 -373 -301
-521 -356 -357 -876 -445 -1331 -224 -156 76 -334 219 -334 269 0 10 9 30 21
45 33 42 70 35 142 -27 151 -131 332 -219 511 -247 122 -20 342 -8 449 24 164
49 296 126 423 248 141 136 233 291 279 474 35 138 43 282 21 413 -35 208
-102 349 -245 519 -33 40 -61 82 -61 94 0 31 39 68 71 68 17 0 42 -12 64 -31z
m-659 -99 c240 -60 437 -239 517 -469 42 -119 49 -287 18 -412 -55 -219 -187
-382 -396 -485 -211 -104 -472 -94 -678 27 -380 224 -479 722 -213 1075 103
138 267 239 441 274 79 16 228 11 311 -10z m-4486 -3053 c89 -47 115 -159 57
-245 -31 -47 -80 -72 -142 -72 -119 0 -205 120 -160 226 44 105 147 143 245
91z m2150 -1732 c1139 -1139 1446 -1451 1448 -1473 4 -38 -30 -72 -71 -72 -29
0 -157 125 -1479 1447 l-1448 1448 47 47 c26 27 50 48 53 48 3 0 655 -650
1450 -1445z"/>
</g>
</svg>
