<?xml version="1.0" standalone="no"?>
<!DOCTYPE svg PUBLIC "-//W3C//DTD SVG 20010904//EN"
 "http://www.w3.org/TR/2001/REC-SVG-20010904/DTD/svg10.dtd">
<svg version="1.0" xmlns="http://www.w3.org/2000/svg"
 width="130.000000pt" height="227.000000pt" viewBox="0 0 130.000000 227.000000"
 preserveAspectRatio="xMidYMid meet">

<g transform="translate(0.000000,227.000000) scale(0.100000,-0.100000)"
fill="#000000" stroke="none">
<path d="M577 2232 c-26 -15 -28 -21 -24 -60 8 -75 71 -118 163 -110 24 2 44
0 44 -4 0 -12 38 -9 45 3 4 5 0 18 -9 28 -9 10 -16 27 -16 38 0 23 -21 44 -64
64 -44 21 -45 39 -2 39 20 0 36 5 36 10 0 17 -141 10 -173 -8z m23 -51 c0 -27
-17 -35 -23 -11 -5 19 0 30 15 30 4 0 8 -9 8 -19z"/>
<path d="M840 1998 c1 -13 13 -33 50 -78 12 -14 40 -49 64 -78 46 -55 77 -137
131 -339 7 -25 23 -30 31 -10 2 7 -18 82 -46 167 -51 154 -74 196 -159 285
-10 11 -24 30 -30 43 -12 23 -41 31 -41 10z"/>
<path d="M624 1958 c17 -83 25 -172 25 -280 1 -98 4 -118 16 -118 13 0 15 21
15 128 0 127 -11 221 -34 275 -15 37 -30 34 -22 -5z"/>
<path d="M727 1983 c-4 -3 6 -29 22 -57 16 -28 37 -78 46 -111 10 -33 27 -78
38 -100 23 -46 66 -206 67 -247 0 -16 6 -28 13 -28 33 0 -5 204 -57 308 -13
26 -29 70 -35 99 -13 52 -63 143 -79 143 -5 0 -12 -3 -15 -7z"/>
<path d="M616 1454 c-4 -15 -5 -29 -2 -32 10 -9 36 20 36 39 0 29 -27 23 -34
-7z"/>
<path d="M541 1397 c-11 -13 -13 -76 -4 -109 10 -37 23 -16 23 37 0 62 17 74
46 30 11 -17 25 -25 46 -25 16 0 37 -4 46 -9 9 -5 53 -11 96 -12 73 -3 79 -2
87 18 9 25 46 53 70 53 22 0 31 -23 38 -95 8 -77 25 -77 29 -1 4 84 -19 126
-69 126 -40 0 -89 -32 -89 -57 0 -14 -13 -15 -102 -10 -96 6 -103 8 -131 37
-31 32 -67 39 -86 17z"/>
<path d="M1104 1373 c29 -172 29 -219 -1 -357 -8 -38 18 -31 28 8 19 68 28
198 19 254 -14 77 -31 132 -43 132 -5 0 -6 -16 -3 -37z"/>
<path d="M516 1233 c-17 -17 -38 -80 -40 -116 -2 -35 2 -41 39 -62 43 -26 85
-24 85 2 0 10 -7 14 -19 10 -24 -6 -81 28 -81 48 0 9 9 35 20 57 11 23 20 48
20 55 0 14 -12 17 -24 6z"/>
<path d="M820 1176 c0 -9 7 -16 16 -16 17 0 14 22 -4 28 -7 2 -12 -3 -12 -12z"/>
<path d="M530 1170 c0 -5 7 -10 15 -10 8 0 15 5 15 10 0 6 -7 10 -15 10 -8 0
-15 -4 -15 -10z"/>
<path d="M600 1168 c0 -26 16 -35 68 -41 62 -7 82 -2 82 24 0 21 -16 26 -23 7
-3 -10 -9 -10 -29 1 -14 7 -35 10 -47 6 -12 -4 -21 -2 -21 4 0 6 -7 11 -15 11
-8 0 -15 -6 -15 -12z"/>
<path d="M855 1084 c-27 -19 -67 -37 -87 -40 -24 -4 -38 -12 -38 -22 0 -11 9
-14 43 -10 53 6 147 63 147 89 0 25 -6 23 -65 -17z"/>
<path d="M169 1041 c-35 -35 -39 -44 -39 -89 0 -40 4 -53 19 -62 29 -15 153
-12 194 5 65 27 75 19 32 -26 -50 -51 -211 -189 -221 -189 -4 0 -19 -10 -32
-22 -15 -15 -36 -23 -59 -23 -51 0 -59 -19 -42 -94 13 -61 13 -61 49 -61 27 0
47 -9 78 -35 31 -27 58 -40 109 -50 92 -20 244 -19 318 1 33 9 74 19 90 23 82
21 151 66 252 169 81 81 110 118 137 175 l34 71 19 -39 c11 -22 23 -52 27 -67
6 -26 10 -28 60 -28 78 0 94 22 92 129 -1 90 -9 104 -82 141 -32 17 -48 20
-55 13 -8 -8 3 -19 39 -37 62 -32 72 -48 72 -123 0 -72 -19 -103 -61 -103 -30
0 -30 0 -60 79 -17 46 -57 91 -80 91 -21 0 -25 -10 -9 -26 14 -14 -21 -105
-56 -148 -14 -17 -62 -68 -107 -114 -62 -64 -99 -93 -159 -123 -42 -21 -86
-39 -95 -39 -10 0 -47 -10 -83 -21 -55 -18 -80 -20 -160 -14 -120 8 -157 18
-208 55 -30 21 -42 37 -42 55 0 24 2 25 65 25 53 0 77 6 138 35 41 19 81 35
90 35 9 0 18 4 21 9 3 5 30 23 59 39 59 34 167 134 167 155 0 8 9 22 20 32 22
20 27 55 8 55 -7 0 -24 -17 -38 -38 -47 -70 -154 -166 -220 -199 -161 -79
-195 -91 -262 -95 l-68 -4 0 27 c0 21 9 33 38 50 20 12 42 27 47 33 6 6 35 31
65 55 59 47 210 200 210 212 0 14 -24 23 -28 11 -2 -7 -22 -12 -43 -12 -22 0
-54 -7 -70 -16 -36 -18 -117 -29 -152 -20 -80 20 -3 156 88 156 17 0 50 -9 74
-20 78 -36 102 -19 26 18 -32 15 -64 22 -106 22 -58 0 -64 -2 -100 -39z"/>
<path d="M467 1040 c-6 -23 16 -59 27 -42 8 13 -3 62 -14 62 -4 0 -10 -9 -13
-20z"/>
<path d="M941 1024 c-25 -21 -31 -34 -31 -64 0 -67 14 -90 56 -90 41 0 43 21
3 30 -15 4 -25 14 -27 29 -9 60 26 95 90 93 28 -1 38 2 38 13 0 11 -12 15 -49
15 -39 0 -56 -6 -80 -26z"/>
<path d="M963 567 c-9 -14 5 -20 54 -23 72 -5 147 -29 151 -48 2 -10 -10 -24
-32 -37 -45 -26 -45 -44 -1 -71 55 -32 92 -121 56 -133 -10 -3 -23 -5 -27 -4
-39 7 -43 -10 -13 -52 44 -62 23 -138 -43 -154 -24 -6 -29 -2 -47 34 -12 22
-21 52 -21 66 0 14 -4 25 -9 25 -10 0 -21 -24 -21 -45 0 -8 -5 -26 -11 -42 -8
-22 -12 -25 -19 -13 -17 32 -24 112 -25 280 0 108 -4 176 -10 178 -6 1 -11
-68 -12 -190 -4 -257 20 -345 78 -292 19 17 20 17 34 -3 8 -11 27 -23 42 -26
28 -5 81 16 95 37 11 17 9 135 -2 157 -10 17 -7 19 19 19 16 0 32 4 35 8 3 5
-1 35 -9 68 -11 48 -21 65 -51 91 l-38 32 27 12 c25 11 28 17 25 53 -3 39 -5
40 -53 54 -67 19 -165 30 -172 19z"/>
<path d="M819 398 c0 -40 -6 -89 -12 -108 -10 -30 -16 -35 -41 -33 -44 3 -55
19 -58 86 -4 87 -23 73 -22 -15 2 -85 14 -98 85 -98 44 0 48 2 58 31 14 40 15
209 1 209 -6 0 -10 -31 -11 -72z"/>
<path d="M346 254 c-9 -114 -3 -126 58 -122 32 2 43 8 52 28 17 36 25 192 11
187 -7 -2 -14 -35 -17 -79 -7 -85 -21 -110 -59 -106 -25 3 -26 5 -22 57 2 30
4 66 6 80 1 14 1 31 -2 38 -12 32 -21 6 -27 -83z"/>
</g>
</svg>
